<?xml version="1.0" encoding="UTF-8" ?>
<!DOCTYPE svg PUBLIC "-//W3C//DTD SVG 1.1//EN" "http://www.w3.org/Graphics/SVG/1.1/DTD/svg11.dtd">
<svg width="960pt" height="540pt" viewBox="0 0 960 540" version="1.1" xmlns="http://www.w3.org/2000/svg">
<g id="#71c7f2ff">
<path fill="#71c7f2" opacity="1.00" d=" M 476.50 41.41 C 477.04 40.10 477.66 38.81 478.34 37.56 C 488.35 60.93 498.12 84.40 508.26 107.71 C 508.89 106.24 508.19 102.77 510.55 103.19 C 511.05 104.76 511.27 106.41 511.50 108.04 C 513.00 104.83 514.79 101.75 516.92 98.91 C 517.10 103.49 515.46 107.87 513.48 111.93 C 515.39 111.84 517.36 111.72 519.17 112.48 C 516.94 114.02 514.49 115.19 511.96 116.12 C 521.67 138.42 531.96 160.46 542.53 182.37 C 543.86 185.80 547.55 187.47 550.85 188.44 C 560.97 183.76 570.95 178.17 582.05 176.07 C 597.57 173.04 613.52 176.25 629.09 173.77 C 629.29 172.17 629.57 170.55 630.62 169.26 C 631.12 169.92 632.13 171.22 632.63 171.87 C 633.89 169.83 634.74 167.30 637.03 166.16 C 639.10 167.26 637.97 170.15 638.27 172.04 C 641.64 170.63 644.76 168.62 648.31 167.63 C 648.88 173.59 643.15 176.91 639.22 180.22 C 636.09 182.57 635.83 186.73 634.36 190.06 C 631.41 196.84 629.03 203.86 625.25 210.24 C 623.54 216.16 620.09 221.35 616.14 226.01 C 618.13 225.65 620.13 225.34 622.15 225.06 C 621.32 225.59 620.51 226.11 619.70 226.64 C 618.42 229.35 616.68 231.81 614.65 234.01 C 617.14 233.23 619.74 232.66 622.38 233.02 C 620.18 235.47 616.52 235.79 614.56 238.51 C 609.15 243.55 603.29 248.21 596.93 251.99 C 594.15 253.82 590.51 253.78 587.89 255.82 C 583.93 261.56 585.91 269.17 589.22 274.75 C 599.44 294.65 610.20 314.29 620.29 334.25 C 622.57 339.32 625.17 344.27 628.15 348.97 C 634.61 360.20 640.34 371.83 646.62 383.16 C 647.62 385.21 650.04 385.69 651.96 386.52 C 653.78 387.49 655.54 388.57 657.27 389.71 C 654.86 389.74 652.47 389.69 650.08 389.58 C 650.74 391.34 651.41 393.11 652.07 394.88 C 650.35 394.09 648.62 393.30 646.91 392.51 C 646.86 394.77 646.80 397.04 646.71 399.30 C 643.69 396.22 642.16 392.10 639.52 388.75 C 623.69 381.19 606.92 375.98 590.09 371.20 C 601.64 377.54 613.22 383.89 624.15 391.28 C 612.12 393.13 600.03 394.52 588.02 396.50 C 585.17 382.34 581.07 368.48 576.39 354.84 C 577.64 353.10 579.42 351.87 581.05 350.51 C 580.29 350.38 578.76 350.12 578.00 349.99 C 579.05 347.28 579.87 344.48 580.44 341.62 C 579.02 343.03 577.63 344.48 576.25 345.95 C 576.30 342.12 576.28 338.28 576.02 334.46 C 573.88 336.80 572.25 339.53 570.93 342.40 C 566.68 335.12 561.93 328.16 556.71 321.55 C 558.97 319.09 561.25 316.63 563.72 314.36 C 565.23 316.62 566.11 321.68 569.86 320.22 C 572.43 318.10 574.49 315.46 576.84 313.11 C 578.61 315.34 580.13 317.88 582.43 319.64 C 584.19 320.39 585.44 318.62 586.72 317.72 C 589.45 315.12 592.77 313.21 595.43 310.53 C 597.23 308.82 595.49 305.63 593.12 306.01 C 589.66 307.84 586.79 310.55 583.62 312.81 C 581.57 310.35 579.98 307.19 577.00 305.77 C 573.62 306.63 572.08 310.52 569.60 312.77 C 568.08 310.96 567.01 307.39 564.03 308.06 C 560.26 309.32 557.68 312.62 554.72 315.11 C 553.99 313.26 553.78 311.11 552.46 309.58 C 550.47 308.34 548.69 310.38 547.21 311.45 C 535.90 301.06 522.10 293.24 507.13 289.65 C 506.92 289.24 506.51 288.43 506.30 288.02 C 504.24 283.32 500.32 278.95 495.00 278.26 C 491.35 277.58 487.92 281.43 489.13 284.97 C 489.98 287.98 493.65 288.36 495.67 290.32 C 496.60 294.36 492.22 296.18 488.93 296.26 C 488.45 293.99 488.19 291.65 487.35 289.48 C 485.52 286.02 479.45 286.27 478.36 290.19 C 477.25 292.55 477.22 295.71 474.95 297.33 C 472.48 297.39 470.03 295.75 470.73 293.02 C 470.12 288.74 475.95 289.22 477.12 285.89 C 478.45 282.88 476.26 279.12 473.03 278.72 C 468.21 278.58 463.95 281.77 461.59 285.79 C 452.39 287.09 443.87 291.11 435.97 295.84 C 429.39 299.77 422.46 303.45 417.13 309.08 C 415.32 310.96 413.52 312.84 411.81 314.81 C 410.39 312.58 410.03 308.48 406.95 308.09 C 402.02 310.40 397.74 313.94 393.20 316.93 C 391.95 314.49 390.99 311.85 389.31 309.65 C 387.18 308.39 385.22 310.52 383.57 311.61 C 380.42 314.20 376.91 316.27 373.69 318.75 C 371.45 320.15 373.58 324.15 376.00 323.18 C 380.00 321.80 383.09 318.75 386.43 316.29 C 388.30 318.92 388.88 322.93 391.98 324.39 C 396.91 321.93 400.74 317.63 405.78 315.23 C 406.36 316.28 406.94 317.33 407.54 318.38 C 403.99 323.48 399.81 328.10 396.20 333.16 C 392.63 338.11 390.12 343.70 387.33 349.10 C 385.93 346.26 384.65 343.36 383.32 340.49 C 381.91 342.99 382.03 345.90 382.01 348.68 C 380.92 348.43 379.84 348.19 378.77 347.95 C 379.17 349.96 379.57 351.98 379.97 354.00 C 379.17 354.16 377.55 354.47 376.75 354.63 C 378.17 357.01 380.21 358.90 381.99 361.00 C 381.59 363.99 380.46 366.82 379.55 369.69 C 376.65 378.04 374.73 386.70 372.99 395.36 C 373.54 395.30 374.63 395.20 375.18 395.15 C 354.94 401.30 334.46 406.71 313.64 410.49 C 307.17 411.68 300.73 412.98 294.26 414.16 C 303.06 398.33 311.47 382.27 320.51 366.58 C 321.90 364.54 323.20 362.44 324.26 360.21 C 327.02 354.27 330.64 348.77 333.26 342.76 C 346.92 317.22 360.60 291.68 373.97 265.98 C 375.21 263.00 375.29 259.68 375.81 256.52 C 376.64 252.04 371.83 249.30 368.27 247.97 C 364.34 250.57 359.88 252.61 355.10 252.81 C 356.48 251.18 358.51 250.40 360.18 249.13 C 361.46 247.83 362.12 246.09 363.01 244.53 C 355.74 243.41 350.26 236.60 349.62 229.44 C 351.71 230.28 353.81 231.08 355.94 231.82 C 351.01 224.63 348.76 215.80 350.06 207.13 C 351.61 208.77 353.29 210.28 355.01 211.75 C 352.23 205.40 349.51 198.91 348.90 191.93 C 348.04 183.46 344.64 175.60 342.35 167.48 C 340.64 163.47 337.62 160.24 335.44 156.51 C 334.92 155.35 336.26 154.46 336.70 153.53 C 343.61 154.79 349.98 157.99 356.17 161.20 C 354.81 158.99 353.22 156.66 353.96 153.93 C 356.10 155.34 358.01 157.05 359.71 158.98 C 359.39 157.34 359.29 155.70 359.41 154.04 C 363.00 155.94 364.33 160.04 365.44 163.66 C 372.90 163.47 380.28 165.09 387.52 166.71 C 395.79 169.34 404.72 170.88 411.80 176.23 C 416.26 179.71 420.89 183.04 424.69 187.28 C 428.27 191.09 431.41 195.52 436.07 198.12 C 450.03 206.69 464.67 214.34 480.05 220.02 C 459.06 205.25 439.72 188.18 422.33 169.31 C 442.18 127.46 459.11 84.32 476.50 41.41 M 346.56 162.88 C 348.25 164.68 350.50 166.35 350.88 168.97 C 351.74 173.28 352.17 177.67 352.96 182.00 C 354.19 189.26 352.64 196.89 355.29 203.93 C 358.71 212.79 364.76 220.21 370.00 228.02 C 372.14 230.62 375.22 232.19 378.26 233.51 C 378.35 229.97 377.97 226.20 379.88 223.03 C 382.39 218.62 384.56 213.91 387.99 210.11 C 388.21 212.36 388.38 214.62 388.54 216.88 C 392.70 212.52 393.66 206.17 393.87 200.38 C 399.24 201.80 403.59 205.48 408.85 207.18 C 407.60 204.25 406.55 201.04 404.11 198.85 C 401.98 196.87 399.70 195.05 397.80 192.84 C 403.19 193.98 406.87 198.45 411.93 200.16 C 407.69 193.88 403.41 187.31 397.16 182.83 C 389.82 177.17 380.70 174.72 372.03 171.89 C 363.26 169.67 355.26 165.31 346.56 162.88 M 601.21 181.32 C 595.35 183.22 591.54 188.33 586.56 191.63 C 583.29 193.91 579.79 195.88 576.74 198.47 C 580.96 198.99 585.21 198.99 589.46 199.02 C 587.37 200.91 584.96 202.42 582.31 203.40 C 583.96 204.79 585.43 206.40 586.38 208.37 C 581.86 207.25 577.73 204.38 572.88 205.09 C 575.84 208.52 579.52 211.47 581.30 215.77 C 584.67 223.19 589.88 230.76 588.11 239.32 C 594.81 239.23 601.09 236.33 606.24 232.21 C 613.51 225.96 615.88 216.29 620.11 208.06 C 623.90 201.24 626.48 193.77 627.88 186.10 C 628.74 182.35 625.63 178.86 622.05 178.30 C 614.97 177.28 607.92 179.25 601.21 181.32 M 398.12 247.22 C 394.46 248.41 393.47 253.96 396.72 256.15 C 405.85 262.65 415.86 267.76 425.37 273.64 C 426.19 273.90 427.65 275.50 426.01 275.84 C 419.78 278.73 414.15 282.67 408.38 286.35 C 404.30 288.98 399.67 290.76 395.84 293.77 C 392.12 297.62 397.17 304.45 401.93 301.96 C 408.22 298.74 414.34 295.18 420.19 291.22 C 425.85 287.30 432.29 284.74 437.95 280.83 C 440.31 279.45 440.70 276.39 440.78 273.91 C 440.75 271.30 438.23 269.98 436.41 268.62 C 426.49 261.26 415.18 256.10 405.03 249.11 C 403.03 247.79 400.61 246.11 398.12 247.22 M 566.41 247.60 C 562.15 249.39 558.33 252.05 554.41 254.46 C 546.17 261.03 536.16 264.74 527.28 270.30 C 524.41 272.43 525.12 277.23 528.19 278.84 C 536.63 284.40 545.00 290.07 553.58 295.41 C 557.95 297.99 562.17 301.04 567.10 302.48 C 570.68 303.37 574.20 299.51 573.13 296.02 C 572.38 292.78 568.69 292.16 566.23 290.69 C 557.55 285.76 549.23 280.22 540.95 274.65 C 546.07 271.83 551.42 269.39 556.29 266.15 C 560.05 263.21 564.08 260.62 568.30 258.38 C 570.18 257.25 572.68 256.37 573.22 253.96 C 574.57 250.08 570.19 245.93 566.41 247.60 Z" />
<path fill="#71c7f2" opacity="1.00" d=" M 589.87 411.93 C 607.16 408.98 624.65 407.31 641.88 404.04 C 650.54 410.67 658.92 417.64 667.46 424.42 C 668.77 425.45 670.05 426.60 670.81 428.13 C 680.92 446.96 691.18 465.71 701.29 484.54 C 701.88 485.54 702.40 486.71 703.51 487.28 C 707.44 489.65 711.51 491.81 715.08 494.72 C 711.96 494.39 708.89 493.76 705.86 492.99 C 706.85 494.81 707.83 496.64 708.78 498.49 C 707.97 498.04 706.33 497.14 705.52 496.69 C 705.62 497.88 705.84 500.25 705.94 501.44 C 702.58 498.57 701.33 493.69 697.15 491.81 C 662.41 472.27 627.05 453.54 589.84 439.12 C 590.05 430.06 590.09 420.99 589.87 411.93 Z" />
<path fill="#71c7f2" opacity="1.00" d=" M 312.37 426.50 C 331.89 423.03 351.14 418.26 370.19 412.82 C 369.87 421.29 368.91 429.73 369.01 438.22 C 332.55 452.01 297.96 470.23 263.97 489.18 C 261.48 490.16 261.11 493.02 260.13 495.19 C 258.10 500.66 255.31 505.80 252.53 510.92 C 252.88 505.08 254.03 499.33 255.92 493.81 C 253.15 495.33 250.41 496.91 247.65 498.45 C 248.82 496.27 250.00 494.11 251.19 491.95 C 246.69 493.80 241.87 495.22 236.95 494.50 C 242.10 490.95 248.49 489.71 253.89 486.89 C 264.27 468.68 274.26 450.23 284.44 431.89 C 293.73 430.00 303.06 428.29 312.37 426.50 Z" />
</g>
<g id="#2298d3ff">
<path fill="#2298d3" opacity="1.00" d=" M 346.56 162.88 C 355.26 165.31 363.26 169.67 372.03 171.89 C 380.70 174.72 389.82 177.17 397.16 182.83 C 403.41 187.31 407.69 193.88 411.93 200.16 C 406.87 198.45 403.19 193.98 397.80 192.84 C 399.70 195.05 401.98 196.87 404.11 198.85 C 406.55 201.04 407.60 204.25 408.85 207.18 C 403.59 205.48 399.24 201.80 393.87 200.38 C 393.66 206.17 392.70 212.52 388.54 216.88 C 388.38 214.62 388.21 212.36 387.99 210.11 C 384.56 213.91 382.39 218.62 379.88 223.03 C 377.97 226.20 378.35 229.97 378.26 233.51 C 375.22 232.19 372.14 230.62 370.00 228.02 C 364.76 220.21 358.71 212.79 355.29 203.93 C 352.64 196.89 354.19 189.26 352.96 182.00 C 352.17 177.67 351.74 173.28 350.88 168.97 C 350.50 166.35 348.25 164.68 346.56 162.88 Z" />
<path fill="#2298d3" opacity="1.00" d=" M 601.21 181.32 C 607.92 179.25 614.97 177.28 622.05 178.30 C 625.63 178.86 628.74 182.35 627.88 186.10 C 626.48 193.77 623.90 201.24 620.11 208.06 C 615.88 216.29 613.51 225.96 606.24 232.21 C 601.09 236.33 594.81 239.23 588.11 239.32 C 589.88 230.76 584.67 223.19 581.30 215.77 C 579.52 211.47 575.84 208.52 572.88 205.09 C 577.73 204.38 581.86 207.25 586.38 208.37 C 585.43 206.40 583.96 204.79 582.31 203.40 C 584.96 202.42 587.37 200.91 589.46 199.02 C 585.21 198.99 580.96 198.99 576.74 198.47 C 579.79 195.88 583.29 193.91 586.56 191.63 C 591.54 188.33 595.35 183.22 601.21 181.32 Z" />
<path fill="#2298d3" opacity="1.00" d=" M 620.29 334.25 C 637.10 332.23 654.02 330.74 670.96 331.05 C 691.95 330.38 713.15 334.78 732.00 344.09 C 736.28 346.20 740.65 349.82 740.54 355.06 C 741.55 362.79 735.60 368.79 729.77 372.80 C 721.54 378.23 712.68 382.62 703.89 387.06 C 688.84 394.60 672.18 397.82 655.87 401.41 C 651.24 402.49 646.55 403.22 641.88 404.04 C 624.65 407.31 607.16 408.98 589.87 411.93 C 572.33 414.89 554.77 417.99 537.66 422.95 C 518.02 428.45 498.63 435.57 481.14 446.20 C 466.74 454.81 455.41 468.01 448.15 483.06 C 446.57 486.89 441.76 488.87 437.97 487.13 C 434.13 485.60 432.11 480.69 433.93 476.95 C 442.10 459.67 454.88 444.42 471.12 434.23 C 488.98 422.87 508.98 415.29 529.18 409.25 C 548.43 403.45 568.24 399.89 588.02 396.50 C 600.03 394.52 612.12 393.13 624.15 391.28 C 629.28 390.53 634.40 389.65 639.52 388.75 C 642.16 392.10 643.69 396.22 646.71 399.30 C 646.80 397.04 646.86 394.77 646.91 392.51 C 648.62 393.30 650.35 394.09 652.07 394.88 C 651.41 393.11 650.74 391.34 650.08 389.58 C 652.47 389.69 654.86 389.74 657.27 389.71 C 655.54 388.57 653.78 387.49 651.96 386.52 C 662.73 383.94 673.64 381.88 684.18 378.44 C 693.07 375.56 701.33 371.09 709.56 366.73 C 714.63 363.97 719.82 361.29 724.21 357.48 C 711.01 351.14 696.56 347.61 681.98 346.62 C 664.01 346.16 646.00 346.70 628.15 348.97 C 625.17 344.27 622.57 339.32 620.29 334.25 Z" />
<path fill="#2298d3" opacity="1.00" d=" M 313.39 352.52 C 320.13 349.51 326.63 346.01 333.26 342.76 C 330.64 348.77 327.02 354.27 324.26 360.21 C 323.20 362.44 321.90 364.54 320.51 366.58 C 305.41 372.77 289.76 378.51 276.81 388.75 C 270.78 393.66 264.33 398.36 259.76 404.75 C 257.73 407.35 258.20 410.79 258.18 413.86 C 269.62 419.15 282.49 416.92 294.26 414.16 C 300.73 412.98 307.17 411.68 313.64 410.49 C 334.46 406.71 354.94 401.30 375.18 395.15 C 393.60 389.83 412.08 384.68 430.34 378.82 C 439.01 376.00 447.67 373.11 456.43 370.57 C 477.60 364.07 499.37 359.79 520.67 353.76 C 520.80 354.87 520.94 355.98 521.08 357.11 C 521.83 356.31 522.60 355.53 523.36 354.75 C 524.69 359.27 525.77 363.87 526.21 368.57 C 502.41 374.67 478.37 379.88 454.90 387.18 C 446.73 389.67 438.65 392.47 430.49 395.01 C 410.51 401.34 390.25 406.73 370.19 412.82 C 351.14 418.26 331.89 423.03 312.37 426.50 C 303.06 428.29 293.73 430.00 284.44 431.89 C 273.37 433.32 261.53 432.79 251.43 427.59 C 246.94 424.93 242.70 420.50 242.70 414.95 C 242.53 409.90 242.48 404.56 244.76 399.92 C 247.68 393.84 252.58 389.03 257.53 384.59 C 264.36 378.62 271.52 372.97 279.35 368.36 C 290.07 361.81 302.04 357.79 313.39 352.52 Z" />
</g>
<g id="#18526fff">
<path fill="#18526f" opacity="1.00" d=" M 398.12 247.22 C 400.61 246.11 403.03 247.79 405.03 249.11 C 415.18 256.10 426.49 261.26 436.41 268.62 C 438.23 269.98 440.75 271.30 440.78 273.91 C 440.70 276.39 440.31 279.45 437.95 280.83 C 432.29 284.74 425.85 287.30 420.19 291.22 C 414.34 295.18 408.22 298.74 401.93 301.96 C 397.17 304.45 392.12 297.62 395.84 293.77 C 399.67 290.76 404.30 288.98 408.38 286.35 C 414.15 282.67 419.78 278.73 426.01 275.84 C 427.65 275.50 426.19 273.90 425.37 273.64 C 415.86 267.76 405.85 262.65 396.72 256.15 C 393.47 253.96 394.46 248.41 398.12 247.22 Z" />
<path fill="#18526f" opacity="1.00" d=" M 566.41 247.60 C 570.19 245.93 574.57 250.08 573.22 253.96 C 572.68 256.37 570.18 257.25 568.30 258.38 C 564.08 260.62 560.05 263.21 556.29 266.15 C 551.42 269.39 546.07 271.83 540.95 274.65 C 549.23 280.22 557.55 285.76 566.23 290.69 C 568.69 292.16 572.38 292.78 573.13 296.02 C 574.20 299.51 570.68 303.37 567.10 302.48 C 562.17 301.04 557.95 297.99 553.58 295.41 C 545.00 290.07 536.63 284.40 528.19 278.84 C 525.12 277.23 524.41 272.43 527.28 270.30 C 536.16 264.74 546.17 261.03 554.41 254.46 C 558.33 252.05 562.15 249.39 566.41 247.60 Z" />
<path fill="#18526f" opacity="1.00" d=" M 489.13 284.97 C 487.92 281.43 491.35 277.58 495.00 278.26 C 500.32 278.95 504.24 283.32 506.30 288.02 C 506.89 294.08 504.65 300.92 499.09 304.03 C 494.41 307.35 488.20 306.85 483.14 304.75 C 480.28 306.20 477.32 308.00 473.99 307.78 C 469.30 307.42 464.41 305.26 462.01 301.02 C 459.39 296.40 459.99 290.66 461.59 285.79 C 463.95 281.77 468.21 278.58 473.03 278.72 C 476.26 279.12 478.45 282.88 477.12 285.89 C 475.95 289.22 470.12 288.74 470.73 293.02 C 470.03 295.75 472.48 297.39 474.95 297.33 C 477.22 295.71 477.25 292.55 478.36 290.19 C 479.45 286.27 485.52 286.02 487.35 289.48 C 488.19 291.65 488.45 293.99 488.93 296.26 C 492.22 296.18 496.60 294.36 495.67 290.32 C 493.65 288.36 489.98 287.98 489.13 284.97 Z" />
</g>
<g id="#b4e6ffff">
<path fill="#b4e6ff" opacity="1.00" d=" M 435.97 295.84 C 443.87 291.11 452.39 287.09 461.59 285.79 C 459.99 290.66 459.39 296.40 462.01 301.02 C 464.41 305.26 469.30 307.42 473.99 307.78 C 477.32 308.00 480.28 306.20 483.14 304.75 C 488.20 306.85 494.41 307.35 499.09 304.03 C 504.65 300.92 506.89 294.08 506.30 288.02 C 506.51 288.43 506.92 289.24 507.13 289.65 C 522.10 293.24 535.90 301.06 547.21 311.45 C 544.62 313.76 541.74 315.80 539.51 318.47 C 538.28 320.23 540.07 322.54 542.04 322.47 C 544.84 321.15 547.11 318.99 549.50 317.06 C 550.89 319.82 552.99 324.15 556.71 321.55 C 561.93 328.16 566.68 335.12 570.93 342.40 C 572.25 339.53 573.88 336.80 576.02 334.46 C 576.28 338.28 576.30 342.12 576.25 345.95 C 577.63 344.48 579.02 343.03 580.44 341.62 C 579.87 344.48 579.05 347.28 578.00 349.99 C 578.76 350.12 580.29 350.38 581.05 350.51 C 579.42 351.87 577.64 353.10 576.39 354.84 C 581.07 368.48 585.17 382.34 588.02 396.50 C 568.24 399.89 548.43 403.45 529.18 409.25 C 530.91 395.60 529.04 381.92 526.21 368.57 C 525.77 363.87 524.69 359.27 523.36 354.75 C 522.60 355.53 521.83 356.31 521.08 357.11 C 520.94 355.98 520.80 354.87 520.67 353.76 C 519.25 343.93 515.19 334.53 509.41 326.48 C 505.82 320.59 500.69 315.74 495.00 311.89 C 491.83 309.56 487.76 309.51 484.02 309.01 C 474.04 307.70 462.91 310.29 455.95 317.96 C 451.46 321.92 447.86 326.72 444.84 331.87 C 445.99 333.01 447.14 334.18 448.26 335.37 C 447.68 335.56 446.52 335.95 445.94 336.14 C 448.42 338.65 450.56 341.48 452.02 344.71 C 449.46 342.78 446.84 340.94 444.32 338.97 C 444.43 341.51 444.37 344.05 444.07 346.59 C 443.17 345.76 442.30 344.94 441.43 344.12 C 440.98 346.96 440.66 349.81 440.38 352.67 C 438.92 350.58 438.40 348.03 437.66 345.64 C 435.13 356.68 431.70 367.53 430.34 378.82 C 412.08 384.68 393.60 389.83 375.18 395.15 C 374.63 395.20 373.54 395.30 372.99 395.36 C 374.73 386.70 376.65 378.04 379.55 369.69 C 380.46 366.82 381.59 363.99 381.99 361.00 C 380.21 358.90 378.17 357.01 376.75 354.63 C 377.55 354.47 379.17 354.16 379.97 354.00 C 379.57 351.98 379.17 349.96 378.77 347.95 C 379.84 348.19 380.92 348.43 382.01 348.68 C 382.03 345.90 381.91 342.99 383.32 340.49 C 384.65 343.36 385.93 346.26 387.33 349.10 C 390.12 343.70 392.63 338.11 396.20 333.16 C 399.81 328.10 403.99 323.48 407.54 318.38 C 408.57 319.98 409.54 321.80 411.28 322.75 C 413.49 322.82 414.91 320.79 416.56 319.63 C 419.95 316.52 424.17 314.56 427.80 311.78 C 430.53 310.25 428.45 304.56 425.31 306.41 C 420.94 309.55 416.61 312.75 412.18 315.81 C 412.09 315.56 411.90 315.06 411.81 314.81 C 413.52 312.84 415.32 310.96 417.13 309.08 C 422.46 303.45 429.39 299.77 435.97 295.84 Z" />
<path fill="#b4e6ff" opacity="1.00" d=" M 370.19 412.82 C 390.25 406.73 410.51 401.34 430.49 395.01 C 430.34 403.34 432.31 411.56 431.74 419.89 C 424.73 422.55 417.20 423.39 410.01 425.47 C 400.71 428.43 391.05 430.15 381.94 433.73 C 377.58 435.10 373.29 436.65 369.01 438.22 C 368.91 429.73 369.87 421.29 370.19 412.82 Z" />
<path fill="#b4e6ff" opacity="1.00" d=" M 537.66 422.95 C 554.77 417.99 572.33 414.89 589.87 411.93 C 590.09 420.99 590.05 430.06 589.84 439.12 C 572.61 433.23 555.47 426.93 537.66 422.95 Z" />
</g>
<g id="#fcaecbff">
<path fill="#fcaecb" opacity="1.00" d=" M 425.31 306.41 C 428.45 304.56 430.53 310.25 427.80 311.78 C 424.17 314.56 419.95 316.52 416.56 319.63 C 414.91 320.79 413.49 322.82 411.28 322.75 C 409.54 321.80 408.57 319.98 407.54 318.38 C 406.94 317.33 406.36 316.28 405.78 315.23 C 400.74 317.63 396.91 321.93 391.98 324.39 C 388.88 322.93 388.30 318.92 386.43 316.29 C 383.09 318.75 380.00 321.80 376.00 323.18 C 373.58 324.15 371.45 320.15 373.69 318.75 C 376.91 316.27 380.42 314.20 383.57 311.61 C 385.22 310.52 387.18 308.39 389.31 309.65 C 390.99 311.85 391.95 314.49 393.20 316.93 C 397.74 313.94 402.02 310.40 406.95 308.09 C 410.03 308.48 410.39 312.58 411.81 314.81 C 411.90 315.06 412.09 315.56 412.18 315.81 C 416.61 312.75 420.94 309.55 425.31 306.41 Z" />
<path fill="#fcaecb" opacity="1.00" d=" M 569.60 312.77 C 572.08 310.52 573.62 306.63 577.00 305.77 C 579.98 307.19 581.57 310.35 583.62 312.81 C 586.79 310.55 589.66 307.84 593.12 306.01 C 595.49 305.63 597.23 308.82 595.43 310.53 C 592.77 313.21 589.45 315.12 586.72 317.72 C 585.44 318.62 584.19 320.39 582.43 319.64 C 580.13 317.88 578.61 315.34 576.84 313.11 C 574.49 315.46 572.43 318.10 569.86 320.22 C 566.11 321.68 565.23 316.62 563.72 314.36 C 561.25 316.63 558.97 319.09 556.71 321.55 C 552.99 324.15 550.89 319.82 549.50 317.06 C 547.11 318.99 544.84 321.15 542.04 322.47 C 540.07 322.54 538.28 320.23 539.51 318.47 C 541.74 315.80 544.62 313.76 547.21 311.45 C 548.69 310.38 550.47 308.34 552.46 309.58 C 553.78 311.11 553.99 313.26 554.72 315.11 C 557.68 312.62 560.26 309.32 564.03 308.06 C 567.01 307.39 568.08 310.96 569.60 312.77 Z" />
</g>
</svg>
